<svg xmlns="http://www.w3.org/2000/svg" viewBox="0 0 306.79 54.84"><path fill="#5a125b" d="M30.9 17.86c-1.64 1.94-3.19 3.95-4.81 5.91-.8.96-1.61 1.91-2.46 2.83-.75.81-1.98 1.56-2.25 2.74-.33 1.47.54 3.41.75 4.87.28 1.89.54 3.79.79 5.69.24 1.83.47 3.67.68 5.5.11.95.21 1.9.31 2.85.06.61.2 2.45 1.18 1.51 4.05-3.92 7.97-7.98 12.25-11.67 1.97-1.71 3.95-3.4 5.97-5.05 1.04-.84 2.08-1.67 3.14-2.49 1.21-.94 2.57-1.29 2.51-3.06-.02-.7-.03-1.4-.03-2.1.09-1.31-.32-2.68-1.39-3.79 0 0-7.37-7.6-7.42-7.65-.81-.85-1.61-2.24-2.65-2.82-1.28-.72-2.63 1.46-3.18 2.29a50.122 50.122 0 0 1-3.37 4.46Zm-9.6 7.29c1 .18 3.13-2.25 3.61-2.89 1.45-1.93 2.96-3.8 4.49-5.66 1.07-1.3 2.28-2.48 3.43-3.7.77-.81 1.76-1.46 2.39-2.41.98-1.47-.43-2.27-1.34-3.22-.78-.8-1.58-1.59-2.37-2.38-1.15-1.13-2.34-2.23-3.46-3.39a5 5 0 0 0-7.17 0c-1.01 1.05-2.03 2.09-3.04 3.14-.37.38-.85.77-.89 1.36-.04.69.36 1.49.51 2.16.65 2.89 1.23 5.79 1.78 8.69.35 1.88.69 3.76 1.02 5.64.16.94 0-.1.15.84.06.37.4 1.71.89 1.8Zm.03 3.74c0-.06-.02-.12 0 0Zm17.32 10.7c-.5.46-1 .92-1.5 1.37-3.89 3.54-7.74 7.45-12.1 10.37-.89.6-.67 1.45-.42 2.33.2.71.15.72.86.87 1.77.37 4.02 0 5.85 0h13c2.54 0 4.62-2.08 4.62-4.62 0-3.25-.07-6.5-.1-9.75-.02-1.66-.02-3.32 0-4.98.01-1.07.24-2.13.21-3.21-.06-1.9-2.2-.08-2.86.55l-2.94 2.79c-1.52 1.43-3.05 2.86-4.59 4.27ZM19.19 30.7c-.03-.09-.05-.18-.07-.27-.19-1.03-2.15-1.01-2.93-1.36A62.52 62.52 0 0 1 13 27.52c-1.98-1.03-3.92-2.13-5.87-3.22-1.07-.6-2.13-1.23-3.18-1.86-.55-.33-1.09-.67-1.63-.99-.89-.52-1.51.82-1.84 1.51-.36.76-.51 1.6-.45 2.43L.01 49.92c0 2.54 2.08 4.62 4.62 4.62h9.51c1.5 0 3.01-.04 4.5-.01s3.09.64 4.51.09c1.02-.4-.86-5.5-1.04-6.52-.34-1.98-.64-3.97-.98-5.95-.35-2.06-.69-4.12-1.03-6.18-.17-1.07-.34-2.14-.52-3.21-.07-.41-.09-.83-.15-1.24-.04-.28-.16-.53-.24-.8ZM8.41 21.86c1.71.94 3.39 1.93 5.03 2.98 1.69 1.08 3.16 2.66 5.05 3.41.28-1.72-.47-3.6-.71-5.29-.26-1.82-.51-3.65-.75-5.47-.23-1.81-.45-3.62-.65-5.44-.18-1.63-.17-3.3-.5-4.91-.76.25-1.55.73-2.1 1.3-.83.85-1.65 1.7-2.48 2.56-1.04 1.07-2.08 2.15-3.12 3.22-.76.78-1.51 1.56-2.27 2.33-.5.51-1.15.96-1.65 1.51-.2.22-.66.67-.67.99-.01.43.32.46.69.66.46.25.92.48 1.38.72.93.47 1.86.92 2.77 1.42Zm72.46 8.3c0-3.15-.26-5.69-4.07-5.69-2.83 0-4.45 2.45-4.45 4.73v9.01c0 2.89 2.01 1.53 2.01 3.19 0 .74-.47 1.18-1.58 1.18h-6.42c-1.11 0-1.58-.44-1.58-1.18 0-1.66 2.01-.31 2.01-3.19V27.53c0-3.41-2.27-1.75-2.27-3.76 0-1.66 4.71-2.54 5.57-2.54 1.29 0 1.46.88 1.54 3.5 1.88-2.23 4.2-3.5 7.06-3.5 5.31 0 7.75 2.71 7.75 8.58v8.4c0 2.89 2.01 1.53 2.01 3.19 0 .74-.47 1.18-1.58 1.18h-6.42c-1.11 0-1.58-.44-1.58-1.18 0-1.66 2.01-.31 2.01-3.19v-8.05Zm25.35 12.43c-1.8 0-1.97-.96-1.88-2.36h-.17c-1.2 1.84-3.9 2.8-6.76 2.8-4.88 0-7.54-3.06-7.54-6.48 0-5.95 7.88-8.23 14.04-8.23 0-2.54-1.46-4.46-4.28-4.46-3.38 0-3.68 2.54-6.42 2.54-1.03 0-1.88-.57-1.88-1.75 0-2.1 4.2-3.41 8.01-3.41 5.61 0 10.15 2.1 10.15 7.7v9.41c0 2.19 2.14 1.62 2.14 2.89 0 .96-.34 1.36-2.05 1.36h-3.34Zm-2.31-11.9c-4.97 0-8.13 3.06-8.13 5.82 0 2.01 1.63 4.07 3.85 4.07 2.78 0 4.2-2.71 4.28-4.81v-5.08Zm21.06-9.02c.98 0 1.63.35 1.63 1.4s-.64 1.4-1.63 1.4h-3.51v12.69c0 2.06.68 2.63 2.87 2.63 1.97 0 2.48.31 2.48 1.27 0 1.05-.47 1.53-1.5 1.53h-6.08c-2.74 0-3.34-.48-3.34-2.84V24.48h-1.76c-1.24 0-1.63-.31-1.63-1.4s.81-1.27 2.4-1.4c4.88-.48 3.47-7.61 5.44-7.61.9 0 1.11.44 1.11 1.75v5.86h3.51Zm21.33 20.92c-2.14 0-2.31-.74-2.57-2.76-1.84 1.97-4.41 3.19-7.11 3.19-4.97 0-7.02-3.24-7.02-7.22v-8.97c0-3.11-1.97-1.75-1.97-3.41 0-1.4 5.14-2.19 5.78-2.19 1.03 0 1.76.53 1.76 3.24v10.37c0 3.98.94 4.95 3.42 4.95s4.8-1.58 4.8-4.03v-8.93c0-3.11-1.97-1.75-1.97-3.41 0-1.4 5.14-2.19 5.78-2.19 1.03 0 1.76.53 1.76 3.24v13.87c0 2.41 2.18 1.88 2.18 3.06 0 .66-.3 1.18-1.58 1.18h-3.25Zm24.4 0c-2.14 0-2.31-.74-2.57-2.76-1.84 1.97-4.41 3.19-7.11 3.19-4.97 0-7.02-3.24-7.02-7.22v-8.97c0-3.11-1.97-1.75-1.97-3.41 0-1.4 5.14-2.19 5.78-2.19 1.03 0 1.76.53 1.76 3.24v10.37c0 3.98.94 4.95 3.43 4.95s4.79-1.58 4.79-4.03v-8.93c0-3.11-1.97-1.75-1.97-3.41 0-1.4 5.14-2.19 5.78-2.19 1.03 0 1.76.53 1.76 3.24v13.87c0 2.41 2.18 1.88 2.18 3.06 0 .66-.3 1.18-1.58 1.18h-3.25Zm8.48 0c-1.11 0-1.58-.44-1.58-1.18 0-1.66 2.01-.31 2.01-3.19v-8.84c0-5.03-2.87-3.15-2.87-5.03 0-1.27 1.29-1.53 2.48-2.14.9-.44 2.36-.96 2.96-.96 1.88 0 2.18 3.72 2.31 5.12h.09c.98-2.41 3.12-5.12 5.69-5.12 1.76 0 2.87 1.36 2.87 3.06 0 1.18-.51 2.45-2.01 2.45-.64 0-1.71-.7-2.57-.7-1.75 0-3.38 3.02-3.38 6.3v5.86c0 2.89 2.01 1.53 2.01 3.19 0 .74-.47 1.18-1.58 1.18h-6.42Zm22.23-18.99c1.93-1.53 4.24-2.36 6.64-2.36 5.31 0 7.75 2.71 7.75 8.58v8.4c0 2.89 2.01 1.53 2.01 3.19 0 .74-.47 1.18-1.58 1.18h-6.42c-1.11 0-1.58-.44-1.58-1.18 0-1.66 2.01-.31 2.01-3.19v-8.05c0-3.15-.26-5.69-4.37-5.69-2.83 0-4.45 2.45-4.45 4.73v9.01c0 2.89 2.01 1.53 2.01 3.19 0 .74-.47 1.18-1.58 1.18h-6.42c-1.11 0-1.58-.44-1.58-1.18 0-1.66 2.01-.31 2.01-3.19V14.93c0-2.14-2.31-1.66-2.31-2.98 0-.66.64-.79 1.11-1.05.98-.52 4.02-1.66 5.22-1.66 1.33 0 1.54.92 1.54 2.89V23.6Zm36.09 18.99c-2.14 0-2.31-.74-2.57-2.76-1.84 1.97-4.41 3.19-7.11 3.19-4.97 0-7.02-3.24-7.02-7.22v-8.97c0-3.11-1.97-1.75-1.97-3.41 0-1.4 5.14-2.19 5.78-2.19 1.03 0 1.76.53 1.76 3.24v10.37c0 3.98.94 4.95 3.43 4.95s4.79-1.58 4.79-4.03v-8.93c0-3.11-1.97-1.75-1.97-3.41 0-1.4 5.14-2.19 5.78-2.19 1.03 0 1.76.53 1.76 3.24v13.87c0 2.41 2.18 1.88 2.18 3.06 0 .66-.3 1.18-1.58 1.18h-3.25Zm7.93 0c-1.11 0-1.58-.39-1.58-1.14 0-1.66 2.01-.31 2.01-3.19V26.93c0-2.14-2.31-1.66-2.31-2.98 0-.66.6-.92 1.11-1.05.64-.18 4.03-1.66 5.22-1.66 1.33 0 1.54.92 1.54 3.33v13.7c0 2.89 2.01 1.53 2.01 3.19 0 .74-.47 1.14-1.58 1.14h-6.42Zm6.12-26.43c0 1.93-1.37 3.06-3.55 3.06-1.97 0-3.38-1.14-3.38-3.06s1.41-3.06 3.55-3.06c2.01 0 3.38 1.18 3.38 3.06Zm13.15 5.07c4.58 0 7.11 1.84 7.11 3.19 0 2.76-.21 2.98-.94 2.98-1.88 0-1.84-3.54-6.17-3.54-2.78 0-3.42 1.75-3.42 2.89 0 4.11 11.52 1.4 11.52 8.75 0 4.64-3.77 7.53-9.38 7.53-4.84 0-8.26-3.24-8.26-4.68 0-1.01.6-2.23 1.71-2.23 2.14 0 2.1 4.29 6.42 4.29 2.23 0 3.94-1.31 3.94-3.11 0-4.73-11.35-1.27-11.35-9.06 0-4.9 4.67-7 8.82-7Zm18.07 19.22c0 6.39-2.18 10.72-7.15 10.72-1.46 0-3.94-.61-3.94-2.49 0-1.27 1.03-2.06 2.18-2.06 1.41 0 2.14 1.14 2.57 1.14.68 0 .77-1.58.77-4.68V26.92c0-2.14-2.31-1.66-2.31-2.98 0-.66.6-.92 1.11-1.05.64-.18 4.03-1.66 5.22-1.66 1.33 0 1.54.92 1.54 3.33v15.89Zm.13-24.29c0 1.93-1.37 3.06-3.55 3.06-1.97 0-3.38-1.14-3.38-3.06s1.41-3.06 3.55-3.06c2.01 0 3.38 1.18 3.38 3.06Zm15.28 5.07c3.6 0 8.31 1.71 8.26 6.08-.04 5.91-9.76 6.96-14.22 7.22.51 3.28 3.04 5.34 6 5.34 2.53-.13 4.2-.96 5.99-2.63.51-.48.81-.92 1.58-.92.68 0 .98.44.98 1.01 0 2.19-4.71 5.69-9.89 5.69-5.91 0-10.88-4.11-10.92-10.37.04-6.78 4.2-11.42 12.2-11.42Zm-6.29 10.94c2.23-.22 8.99-1.09 8.99-5.47 0-1.97-1.16-3.11-3.08-3.11-4.11 0-5.99 4.2-5.91 8.58Z"/></svg>