<?xml version="1.0" encoding="UTF-8"?>
<svg version="1.1" xmlns="http://www.w3.org/2000/svg" width="1131" height="233">
<path d="M0 0 C6.48258389 0.23498558 12.09167736 2.83169189 18.015625 5.296875 C19.59304474 5.94284637 19.59304474 5.94284637 21.20233154 6.60186768 C23.42270814 7.51277136 25.64153252 8.42746671 27.85888672 9.34570312 C31.22176636 10.73830814 34.58887453 12.12021378 37.95703125 13.5 C40.12265256 14.39000058 42.28802525 15.28060638 44.453125 16.171875 C45.9427475 16.78467316 45.9427475 16.78467316 47.46246338 17.40985107 C52.38307306 19.44886694 57.28454853 21.53000332 62.15917969 23.67675781 C63.06432312 24.0740509 63.96946655 24.47134399 64.90203857 24.88067627 C67 26 67 26 68 28 C68.12272611 30.83684446 68.18574561 33.65071994 68.20532227 36.48876953 C68.21522186 37.36688293 68.22512146 38.24499634 68.23532104 39.14971924 C68.26698274 42.06072262 68.29171191 44.97174235 68.31640625 47.8828125 C68.33697175 49.89778067 68.35796811 51.91274449 68.37937927 53.92770386 C68.43464171 59.23773681 68.48403257 64.54780897 68.53222656 69.85791016 C68.58241115 75.27379862 68.63811308 80.68962997 68.69335938 86.10546875 C68.80099197 96.73693041 68.9024256 107.3684416 69 118 C69.78238037 118.32274902 70.56476074 118.64549805 71.37084961 118.97802734 C74.26731573 120.17660963 77.16120332 121.38115929 80.0534668 122.58984375 C81.3066944 123.11211665 82.56092637 123.63198615 83.81616211 124.14941406 C85.61833606 124.89278412 87.41665557 125.64547716 89.21484375 126.3984375 C90.84087524 127.07398682 90.84087524 127.07398682 92.49975586 127.76318359 C95 129 95 129 96 131 C96.09292928 133.53285051 96.12581684 136.03793593 96.11352539 138.57080078 C96.11367142 139.35137848 96.11381744 140.13195618 96.1139679 140.93618774 C96.11326986 143.52259069 96.10548257 146.10892209 96.09765625 148.6953125 C96.09579168 150.48607341 96.09436796 152.27683483 96.09336853 154.06759644 C96.08954641 158.78584191 96.07971871 163.5040567 96.06866455 168.22229004 C96.05844389 173.03490789 96.0538695 177.84753068 96.04882812 182.66015625 C96.03809619 192.10678433 96.0210234 201.55338962 96 211 C97.29212402 210.98952637 98.58424805 210.97905273 99.91552734 210.96826172 C104.69756309 210.93213281 109.47958673 210.90912549 114.26171875 210.89013672 C116.33367947 210.88006288 118.40562593 210.86640334 120.47753906 210.84912109 C123.45120764 210.82493336 126.4246887 210.81353092 129.3984375 210.8046875 C130.79381241 210.78920364 130.79381241 210.78920364 132.21737671 210.77340698 C133.07811798 210.77325592 133.93885925 210.77310486 134.82568359 210.77294922 C135.58513275 210.768508 136.34458191 210.76406677 137.12704468 210.75949097 C139 211 139 211 141 213 C141.265625 215.3125 141.265625 215.3125 141.25 218 C141.25515625 218.886875 141.2603125 219.77375 141.265625 220.6875 C141 223 141 223 139 225 C137.0354805 225.25069833 137.0354805 225.25069833 134.57403564 225.25168228 C133.63773693 225.25689778 132.70143822 225.26211327 131.73676682 225.26748681 C130.18339048 225.26079465 130.18339048 225.26079465 128.59863281 225.25396729 C126.95659819 225.25864726 126.95659819 225.25864726 125.28139114 225.26342177 C121.58858207 225.2714419 117.89593549 225.26506251 114.203125 225.25878906 C111.56570957 225.26149715 108.92830559 225.26498429 106.29089355 225.26940918 C99.85617769 225.27832058 93.42150838 225.27637342 86.98679066 225.2705839 C81.75897145 225.26607426 76.53116532 225.26545147 71.30334473 225.26763153 C70.18892215 225.26809123 70.18892215 225.26809123 69.05198598 225.26856022 C67.5428845 225.26919964 66.03378303 225.26984807 64.52468157 225.2705054 C50.36087988 225.27621381 36.19710405 225.2696428 22.0333066 225.25890467 C9.8698477 225.24996869 -2.29357304 225.25152059 -14.45703125 225.26074219 C-28.56880446 225.27143581 -42.680555 225.27566444 -56.7923317 225.26951766 C-58.2960027 225.26888054 -59.79967371 225.26825179 -61.30334473 225.26763153 C-62.41320995 225.2671687 -62.41320995 225.2671687 -63.5454967 225.26669653 C-68.76939102 225.26496686 -73.99327099 225.26789053 -79.21716309 225.27259064 C-85.57996964 225.27818941 -91.94272682 225.27670427 -98.30552769 225.26602915 C-101.55434939 225.26075882 -104.80307127 225.25980827 -108.05189514 225.26532745 C-111.56755794 225.27075137 -115.08298523 225.26398725 -118.59863281 225.25396729 C-119.63421703 225.25842873 -120.66980125 225.26289017 -121.73676682 225.26748681 C-123.14121489 225.25966357 -123.14121489 225.25966357 -124.57403564 225.25168228 C-125.38631245 225.25135758 -126.19858925 225.25103287 -127.0354805 225.25069833 C-129 225 -129 225 -131 223 C-131.265625 220.6875 -131.265625 220.6875 -131.25 218 C-131.25515625 217.113125 -131.2603125 216.22625 -131.265625 215.3125 C-131 213 -131 213 -129 211 C-127.12704468 210.75949097 -127.12704468 210.75949097 -124.82568359 210.77294922 C-123.53457169 210.77317581 -123.53457169 210.77317581 -122.21737671 210.77340698 C-121.28712677 210.78372955 -120.35687683 210.79405212 -119.3984375 210.8046875 C-117.97103745 210.80893234 -117.97103745 210.80893234 -116.51480103 210.81326294 C-113.46807408 210.82448011 -110.42163846 210.84958737 -107.375 210.875 C-105.31250424 210.88502782 -103.25000388 210.89415401 -101.1875 210.90234375 C-96.12488733 210.92442446 -91.0624931 210.9589647 -86 211 C-86.00666183 210.26750534 -86.01332367 209.53501068 -86.02018738 208.78031921 C-86.08028233 201.87943197 -86.12596617 194.9785838 -86.15543652 188.07750225 C-86.17109693 184.52950064 -86.19234151 180.98171513 -86.22631836 177.43383789 C-86.26513007 173.35561033 -86.27970602 169.27760999 -86.29296875 165.19921875 C-86.30845261 163.92414963 -86.32393646 162.64908051 -86.33988953 161.33537292 C-86.34011612 160.15437515 -86.34034271 158.97337738 -86.34057617 157.7565918 C-86.34723801 156.71512497 -86.35389984 155.67365814 -86.36076355 154.60063171 C-86 152 -86 152 -84.82514954 150.29524231 C-82.48091217 148.63162223 -80.12030338 147.60456804 -77.45703125 146.51953125 C-76.38388672 146.07802734 -75.31074219 145.63652344 -74.20507812 145.18164062 C-73.08552734 144.72982422 -71.96597656 144.27800781 -70.8125 143.8125 C-69.68134766 143.34908203 -68.55019531 142.88566406 -67.38476562 142.40820312 C-64.59251713 141.26538412 -61.79760607 140.12962574 -59 139 C-58.99635437 137.99188766 -58.99270874 136.98377533 -58.98895264 135.94511414 C-58.9520437 126.45394185 -58.89431634 116.96309525 -58.81609726 107.47217083 C-58.77655384 102.59251733 -58.74439919 97.71304614 -58.72900391 92.83325195 C-58.71388234 88.1257182 -58.67951756 83.41868543 -58.63169098 78.71137428 C-58.61683055 76.91364707 -58.60895633 75.11584835 -58.60811615 73.31805992 C-58.60575866 70.80353482 -58.57877967 68.29040808 -58.54589844 65.77612305 C-58.55344398 64.65618706 -58.55344398 64.65618706 -58.56114197 63.5136261 C-58.4592026 58.48970851 -58.4592026 58.48970851 -56.25895691 56.14329529 C-53.96299226 54.98126977 -51.69727345 53.89592799 -49.31079102 52.93115234 C-48.38625626 52.55421234 -47.4617215 52.17727234 -46.50917053 51.78890991 C-45.02156471 51.19343857 -45.02156471 51.19343857 -43.50390625 50.5859375 C-42.4782103 50.17082916 -41.45251434 49.75572083 -40.39573669 49.32803345 C-38.22909254 48.45279914 -36.06126 47.58050173 -33.89233398 46.7109375 C-30.57541457 45.38018136 -27.26308281 44.03847775 -23.95117188 42.6953125 C-21.8440148 41.84569712 -19.73660131 40.99671738 -17.62890625 40.1484375 C-16.63919327 39.74740814 -15.64948029 39.34637878 -14.629776 38.93319702 C-13.70208908 38.56256134 -12.77440216 38.19192566 -11.81860352 37.81005859 C-10.6009304 37.32066299 -10.6009304 37.32066299 -9.35865784 36.82138062 C-6.92185078 35.97278526 -4.53864999 35.44665921 -2 35 C-2.01047363 34.01080566 -2.02094727 33.02161133 -2.03173828 32.00244141 C-2.06789019 28.33857836 -2.09088282 24.67473114 -2.10986328 21.01074219 C-2.11993188 19.42380117 -2.13358767 17.83687875 -2.15087891 16.25 C-2.17509001 13.97130753 -2.18647422 11.69285994 -2.1953125 9.4140625 C-2.20563507 8.70255035 -2.21595764 7.99103821 -2.22659302 7.25796509 C-2.22699422 5.50368335 -2.12202209 3.75003291 -2 2 C-1.34 1.34 -0.68 0.68 0 0 Z M12 19 C12 41.44 12 63.88 12 87 C19.59 84.03 27.18 81.06 35 78 C36.32 78 37.64 78 39 78 C39.495 92.355 39.495 92.355 40 107 C49.44134224 112.20690147 49.44134224 112.20690147 54 112 C54 86.59 54 61.18 54 35 C47.626875 32.36 41.25375 29.72 34.6875 27 C32.67873779 26.1646875 30.66997559 25.329375 28.6003418 24.46875 C27.00847333 23.81208156 25.41644326 23.15580466 23.82421875 22.5 C22.99748657 22.15453125 22.17075439 21.8090625 21.31896973 21.453125 C20.52752563 21.12828125 19.73608154 20.8034375 18.9206543 20.46875 C18.23448532 20.18451172 17.54831635 19.90027344 16.84135437 19.60742188 C14.84832761 18.84336361 14.84832761 18.84336361 12 19 Z M-8.9206543 51.46875 C-10.10782043 51.95601562 -10.10782043 51.95601562 -11.31896973 52.453125 C-12.1457019 52.79859375 -12.97243408 53.1440625 -13.82421875 53.5 C-14.58786743 53.81453125 -15.35151611 54.1290625 -16.13830566 54.453125 C-18.99041782 55.62966192 -21.83873363 56.81538484 -24.6875 58 C-31.060625 60.64 -37.43375 63.28 -44 66 C-44 88.11 -44 110.22 -44 133 C-38.16699055 132.02323134 -38.16699055 132.02323134 -30 128 C-29.67 120.41 -29.34 112.82 -29 105 C-20.09436542 100.38226355 -11.40154975 96.7606199 -2 93 C-2 78.81 -2 64.62 -2 50 C-4.94555518 50 -6.26588001 50.36903767 -8.9206543 51.46875 Z M19 98.4375 C17.906875 98.88996094 16.81375 99.34242187 15.6875 99.80859375 C13.1309746 100.74907194 13.1309746 100.74907194 12 102 C11.90449302 103.41678911 11.87811517 104.83831241 11.87974548 106.25831604 C11.87837082 107.1768335 11.87699615 108.09535095 11.87557983 109.04170227 C11.87917511 110.05733749 11.88277039 111.07297272 11.88647461 112.11938477 C11.88632858 113.18266998 11.88618256 114.2459552 11.8860321 115.34146118 C11.88673175 118.87479658 11.89452657 122.40808 11.90234375 125.94140625 C11.90420775 128.38378368 11.90563173 130.82616149 11.90663147 133.26853943 C11.91045811 139.71134464 11.92028963 146.15412748 11.93133545 152.59692383 C11.94154644 159.16552426 11.94612842 165.7341283 11.95117188 172.30273438 C11.96191177 185.20183277 11.97898993 198.10091453 12 211 C16.62 211 21.24 211 26 211 C26 173.05 26 135.1 26 96 C23.67626517 96 21.08558953 97.56932417 19 98.4375 Z M-16 113 C-16 145.34 -16 177.68 -16 211 C-11.38 211 -6.76 211 -2 211 C-2 177.01 -2 143.02 -2 108 C-6.95535625 108 -11.425825 111.09409375 -16 113 Z M40 122 C40 151.37 40 180.74 40 211 C44.62 211 49.24 211 54 211 C54 183.28 54 155.56 54 127 C47.19059062 123.54704688 47.19059062 123.54704688 40 122 Z M68 133 C68 158.74 68 184.48 68 211 C72.62 211 77.24 211 82 211 C82 187.24 82 163.48 82 139 C74.47140452 135 74.47140452 135 68 133 Z M-44 148 C-44 168.79 -44 189.58 -44 211 C-39.38 211 -34.76 211 -30 211 C-30 188.56 -30 166.12 -30 143 C-34.95535625 143 -39.425825 146.09409375 -44 148 Z M-65 156.4375 C-66.093125 156.88996094 -67.18625 157.34242188 -68.3125 157.80859375 C-70.8690254 158.74907194 -70.8690254 158.74907194 -72 160 C-72.09333705 161.59610982 -72.11745372 163.19633428 -72.11352539 164.79516602 C-72.11344986 165.81614883 -72.11337433 166.83713165 -72.11329651 167.88905334 C-72.10813522 168.9994548 -72.10297394 170.10985626 -72.09765625 171.25390625 C-72.0962413 172.38448959 -72.09482635 173.51507294 -72.09336853 174.67991638 C-72.08775019 178.30747065 -72.07519458 181.93496424 -72.0625 185.5625 C-72.05748736 188.01497307 -72.05292405 190.4674471 -72.04882812 192.91992188 C-72.0377748 198.94663813 -72.02049788 204.97330876 -72 211 C-67.38 211 -62.76 211 -58 211 C-58 192.19 -58 173.38 -58 154 C-60.32373483 154 -62.91441047 155.56932417 -65 156.4375 Z " fill="#59115A" transform="translate(133,1)"/>
<path d="M0 0 C58.57142857 0 58.57142857 0 70 9 C82.51224288 21.53920892 82.31703684 39.93279892 82.30078125 56.453125 C82.30468078 58.12400415 82.30901797 59.79488233 82.31376648 61.46575928 C82.32118306 64.9519778 82.32097139 68.43809497 82.31567383 71.92431641 C82.30989354 76.34603566 82.32679772 80.76733406 82.3500185 85.18898392 C82.36490208 88.63641704 82.36560777 92.08375228 82.36250877 95.53121185 C82.36301495 97.15915508 82.36811691 98.78710485 82.37832069 100.41501617 C82.473856 117.78785671 81.18241866 135.51654634 69 149 C52.91815742 164.91256003 17.05666896 159 0 159 C0 106.53 0 54.06 0 0 Z M23 17 C23 58.25 23 99.5 23 142 C37.93899537 142.94419043 37.93899537 142.94419043 51.375 137.75 C63.60335698 124.93934031 59.31153255 98.52333206 59.26074219 81.84057617 C59.24931867 78.06245202 59.25595229 74.28461134 59.26788712 70.50649738 C59.27519354 67.54379731 59.27277858 64.58116197 59.26763153 61.6184597 C59.26632078 60.22694043 59.26784946 58.83541478 59.27259064 57.44390297 C59.94217369 37.91782953 59.94217369 37.91782953 52 21 C42.66298094 15.09290631 34.76558926 17 23 17 Z " fill="#59115A" transform="translate(321,41)"/>
<path d="M0 0 C7.59 0 15.18 0 23 0 C23 22.44 23 44.88 23 68 C35.87 68 48.74 68 62 68 C62 45.56 62 23.12 62 0 C69.59 0 77.18 0 85 0 C85 52.47 85 104.94 85 159 C77.41 159 69.82 159 62 159 C62 134.58 62 110.16 62 85 C49.13 85 36.26 85 23 85 C23 109.42 23 133.84 23 159 C15.41 159 7.82 159 0 159 C0 106.53 0 54.06 0 0 Z " fill="#59115A" transform="translate(765,41)"/>
<path d="M0 0 C3.39422349 2.59164847 5.24735481 5.19518944 6.5859375 9.2109375 C7.18019531 8.67984375 7.77445313 8.14875 8.38671875 7.6015625 C17.08065776 0.19210904 25.20820401 -3.63300322 36.7890625 -3.16796875 C42.69684172 -2.36761319 46.79435491 -0.19529488 50.4609375 4.5234375 C54.77556235 10.75399716 54.87175797 17.71772485 54.81298828 25.00170898 C54.81328033 25.95858109 54.81357239 26.91545319 54.81387329 27.90132141 C54.81248671 31.04498555 54.79695712 34.18840882 54.78125 37.33203125 C54.77751748 39.5192095 54.77467164 41.70638942 54.77267456 43.89356995 C54.76505691 49.63598284 54.74542444 55.37829376 54.7232666 61.1206665 C54.70276792 66.98602926 54.69366425 72.85140858 54.68359375 78.71679688 C54.66217679 90.21489565 54.62700985 101.71289212 54.5859375 113.2109375 C47.9859375 113.2109375 41.3859375 113.2109375 34.5859375 113.2109375 C34.56611816 110.38958252 34.54629883 107.56822754 34.52587891 104.66137695 C34.45898333 95.34142553 34.38134356 86.02158594 34.29841042 76.70176411 C34.24845664 71.05095692 34.20212636 65.40016835 34.1640625 59.74926758 C34.12719833 54.29622602 34.080835 48.84334051 34.02787399 43.39043236 C34.00933612 41.30965092 33.99422592 39.22883603 33.98259354 37.14800453 C33.96572091 34.23433057 33.93668298 31.32101353 33.90478516 28.4074707 C33.90262497 27.54647766 33.90046478 26.68548462 33.89823914 25.79840088 C33.83869767 21.54324066 33.70715671 18.02641985 31.5859375 14.2109375 C28.09924673 12.46759212 24.39820209 12.76172161 20.5859375 13.2109375 C16.279139 14.71089146 12.56003071 16.70540615 9.5859375 20.2109375 C9.27592686 23.23650418 9.14850425 26.06033414 9.15356445 29.08862305 C9.1433728 29.99614319 9.13318115 30.90366333 9.12268066 31.83868408 C9.09245917 34.84173686 9.08327072 37.84447115 9.07421875 40.84765625 C9.05737886 42.9284624 9.03922956 45.00925834 9.01982117 47.09004211 C8.9722402 52.56939502 8.94248319 58.04870652 8.91638184 63.52819824 C8.88661715 69.11849142 8.84007281 74.70864179 8.79492188 80.29882812 C8.7087965 91.26947315 8.64304276 102.24010299 8.5859375 113.2109375 C1.9859375 113.2109375 -4.6140625 113.2109375 -11.4140625 113.2109375 C-11.4437915 109.13093384 -11.4437915 109.13093384 -11.47412109 104.96850586 C-11.54109042 95.9718689 -11.61872912 86.97534666 -11.70158958 77.97884274 C-11.75149086 72.52539033 -11.79782152 67.07195672 -11.8359375 61.6184082 C-11.87286811 56.35338693 -11.91924931 51.08852525 -11.97212601 45.82364082 C-11.99062863 43.81708138 -12.00575177 41.81048778 -12.01740646 39.80387688 C-12.03433963 36.98879603 -12.06339177 34.17407742 -12.09521484 31.35913086 C-12.09737503 30.53338058 -12.09953522 29.70763031 -12.10176086 28.8568573 C-12.21941876 20.31585574 -12.21941876 20.31585574 -16.4140625 13.2109375 C-21.73290251 12.27173713 -26.20755104 12.66651572 -30.7890625 15.5859375 C-31.39492188 16.02679688 -32.00078125 16.46765625 -32.625 16.921875 C-34.4140625 18.2109375 -34.4140625 18.2109375 -38.4140625 20.2109375 C-38.4140625 50.9009375 -38.4140625 81.5909375 -38.4140625 113.2109375 C-45.0140625 113.2109375 -51.6140625 113.2109375 -58.4140625 113.2109375 C-58.4140625 75.5909375 -58.4140625 37.9709375 -58.4140625 -0.7890625 C-51.8140625 -0.7890625 -45.2140625 -0.7890625 -38.4140625 -0.7890625 C-38.0840625 1.8509375 -37.7540625 4.4909375 -37.4140625 7.2109375 C-36.95257812 6.82421875 -36.49109375 6.4375 -36.015625 6.0390625 C-25.86718064 -2.06364801 -12.18306818 -7.24815449 0 0 Z " fill="#59115B" transform="translate(561.4140625,86.7890625)"/>
<path d="M0 0 C9.38640467 7.83226226 12.01650636 17.46859944 13.3828125 29.30078125 C13.82966471 36.4286014 13.77410793 43.56967815 13.71899414 50.70825195 C13.69528133 53.99259851 13.69846965 57.27613555 13.70507812 60.56054688 C13.66578947 90.50672892 13.66578947 90.50672892 5.2578125 103.61328125 C-3.35381864 111.66328427 -12.98999397 112.76805816 -24.265625 112.58203125 C-31.41854075 112.27197855 -38.95303311 110.05843149 -44.27734375 105.02734375 C-52.70377566 94.16879301 -53.92963797 81.6177152 -53.91796875 68.34375 C-53.92225388 67.23832352 -53.926539 66.13289703 -53.93095398 64.99397278 C-53.93666037 62.67038656 -53.93722503 60.34678249 -53.93286133 58.02319336 C-53.92970519 54.50798407 -53.95319526 50.99362106 -53.97851562 47.47851562 C-54.06941309 15.03732657 -54.06941309 15.03732657 -44.78125 4.1484375 C-33.84214193 -6.77092489 -13.06958256 -8.48547525 0 0 Z M-29.6171875 17.30078125 C-32.19288054 23.92269716 -31.92319421 30.5439881 -31.91796875 37.57421875 C-31.92225388 38.85253571 -31.926539 40.13085266 -31.93095398 41.44790649 C-31.93838588 44.14597742 -31.93814734 46.84391743 -31.93286133 49.54199219 C-31.92707423 52.97698796 -31.94399339 56.41144318 -31.967206 59.84634972 C-31.9855966 63.15149394 -31.98175575 66.45652383 -31.98046875 69.76171875 C-31.9896785 70.98386078 -31.99888824 72.20600281 -32.00837708 73.46517944 C-31.97304575 84.40684376 -31.97304575 84.40684376 -27.22407532 93.99008179 C-24.56554909 96.15857722 -21.96591979 96.12757096 -18.6171875 96.30078125 C-14.89122201 95.52092801 -13.80014966 94.52440166 -11.3671875 91.55078125 C-8.73730107 86.66670645 -8.49333313 81.99115075 -8.47192383 76.51416016 C-8.46554398 75.39925201 -8.45916412 74.28434387 -8.45259094 73.13565063 C-8.45147812 71.94490936 -8.4503653 70.75416809 -8.44921875 69.52734375 C-8.44589035 68.28963226 -8.44256195 67.05192078 -8.43913269 65.77670288 C-8.43407777 63.16266246 -8.43172392 60.54861561 -8.43188477 57.93457031 C-8.4320063 53.94718927 -8.41153028 49.95999196 -8.39257812 45.97265625 C-8.38964368 43.42838636 -8.38765923 40.88411516 -8.38671875 38.33984375 C-8.37953323 37.15315094 -8.37234772 35.96645813 -8.36494446 34.74380493 C-8.36870027 23.96640636 -8.36870027 23.96640636 -12.6796875 14.30078125 C-16.17809669 11.91888563 -18.30242813 11.5640573 -22.46484375 11.8203125 C-26.08263192 12.62791313 -27.52774795 14.32491281 -29.6171875 17.30078125 Z " fill="#59115A" transform="translate(923.6171875,88.69921875)"/>
<path d="M0 0 C9.38640467 7.83226226 12.01650636 17.46859944 13.3828125 29.30078125 C13.82966471 36.4286014 13.77410793 43.56967815 13.71899414 50.70825195 C13.69528133 53.99259851 13.69846965 57.27613555 13.70507812 60.56054688 C13.66578947 90.50672892 13.66578947 90.50672892 5.2578125 103.61328125 C-3.35381864 111.66328427 -12.98999397 112.76805816 -24.265625 112.58203125 C-31.41854075 112.27197855 -38.95303311 110.05843149 -44.27734375 105.02734375 C-52.70377566 94.16879301 -53.92963797 81.6177152 -53.91796875 68.34375 C-53.92225388 67.23832352 -53.926539 66.13289703 -53.93095398 64.99397278 C-53.93666037 62.67038656 -53.93722503 60.34678249 -53.93286133 58.02319336 C-53.92970519 54.50798407 -53.95319526 50.99362106 -53.97851562 47.47851562 C-54.06941309 15.03732657 -54.06941309 15.03732657 -44.78125 4.1484375 C-33.84214193 -6.77092489 -13.06958256 -8.48547525 0 0 Z M-29.6171875 17.30078125 C-32.19288054 23.92269716 -31.92319421 30.5439881 -31.91796875 37.57421875 C-31.92225388 38.85253571 -31.926539 40.13085266 -31.93095398 41.44790649 C-31.93838588 44.14597742 -31.93814734 46.84391743 -31.93286133 49.54199219 C-31.92707423 52.97698796 -31.94399339 56.41144318 -31.967206 59.84634972 C-31.9855966 63.15149394 -31.98175575 66.45652383 -31.98046875 69.76171875 C-31.9896785 70.98386078 -31.99888824 72.20600281 -32.00837708 73.46517944 C-31.97304575 84.40684376 -31.97304575 84.40684376 -27.22407532 93.99008179 C-24.56554909 96.15857722 -21.96591979 96.12757096 -18.6171875 96.30078125 C-14.89122201 95.52092801 -13.80014966 94.52440166 -11.3671875 91.55078125 C-8.73730107 86.66670645 -8.49333313 81.99115075 -8.47192383 76.51416016 C-8.46554398 75.39925201 -8.45916412 74.28434387 -8.45259094 73.13565063 C-8.45147812 71.94490936 -8.4503653 70.75416809 -8.44921875 69.52734375 C-8.44589035 68.28963226 -8.44256195 67.05192078 -8.43913269 65.77670288 C-8.43407777 63.16266246 -8.43172392 60.54861561 -8.43188477 57.93457031 C-8.4320063 53.94718927 -8.41153028 49.95999196 -8.39257812 45.97265625 C-8.38964368 43.42838636 -8.38765923 40.88411516 -8.38671875 38.33984375 C-8.37953323 37.15315094 -8.37234772 35.96645813 -8.36494446 34.74380493 C-8.36870027 23.96640636 -8.36870027 23.96640636 -12.6796875 14.30078125 C-16.17809669 11.91888563 -18.30242813 11.5640573 -22.46484375 11.8203125 C-26.08263192 12.62791313 -27.52774795 14.32491281 -29.6171875 17.30078125 Z " fill="#59115A" transform="translate(687.6171875,88.69921875)"/>
<path d="M0 0 C8.23773046 7.97449471 9.75920767 19.64949971 10.2331543 30.59057617 C10.27325768 34.17144393 10.25361833 37.74343736 10.203125 41.32421875 C10.161875 45.51109375 10.120625 49.69796875 10.078125 54.01171875 C-4.441875 54.01171875 -18.961875 54.01171875 -33.921875 54.01171875 C-33.81875 58.81734375 -33.715625 63.62296875 -33.609375 68.57421875 C-33.58447998 70.07670166 -33.55958496 71.57918457 -33.53393555 73.12719727 C-33.50082275 74.32787842 -33.46770996 75.52855957 -33.43359375 76.765625 C-33.40740967 77.98580322 -33.38122559 79.20598145 -33.35424805 80.46313477 C-32.8472115 84.62449912 -31.84312475 87.29535758 -29.921875 91.01171875 C-26.42371101 93.55583801 -24.56442562 94.03350013 -20.234375 93.88671875 C-16.29162892 92.95300239 -16.29162892 92.95300239 -13.921875 90.01171875 C-11.63055848 83.13776918 -11.37220355 76.21697562 -10.921875 69.01171875 C-3.991875 69.01171875 2.938125 69.01171875 10.078125 69.01171875 C10.46265243 81.82929976 10.13705411 94.05505793 1.078125 104.01171875 C-8.2500308 111.74726258 -19.40303775 111.84093965 -30.921875 111.01171875 C-38.52099543 109.94004792 -43.87991216 106.79067384 -48.921875 101.01171875 C-57.89359873 88.7750558 -56.39159574 70.87232588 -56.31298828 56.56274414 C-56.29692502 53.08504916 -56.31289222 49.60851884 -56.33203125 46.13085938 C-56.36618326 12.01299904 -56.36618326 12.01299904 -45.3984375 0.3984375 C-33.66574656 -9.30249477 -12.03032287 -8.68622963 0 0 Z M-31.921875 15.01171875 C-34.03491517 20.72502596 -34.16542918 25.90557862 -34.046875 31.94921875 C-34.005625 34.93984375 -33.964375 37.93046875 -33.921875 41.01171875 C-26.331875 41.01171875 -18.741875 41.01171875 -10.921875 41.01171875 C-10.082372 26.33743816 -10.082372 26.33743816 -14.984375 12.94921875 C-20.77063704 9.13274804 -27.32379769 9.57762738 -31.921875 15.01171875 Z " fill="#59115A" transform="translate(1068.921875,89.98828125)"/>
<path d="M0 0 C8.23773046 7.97449471 9.75920767 19.64949971 10.2331543 30.59057617 C10.27325768 34.17144393 10.25361833 37.74343736 10.203125 41.32421875 C10.161875 45.51109375 10.120625 49.69796875 10.078125 54.01171875 C-4.441875 54.01171875 -18.961875 54.01171875 -33.921875 54.01171875 C-33.81875 58.81734375 -33.715625 63.62296875 -33.609375 68.57421875 C-33.58447998 70.07670166 -33.55958496 71.57918457 -33.53393555 73.12719727 C-33.50082275 74.32787842 -33.46770996 75.52855957 -33.43359375 76.765625 C-33.40740967 77.98580322 -33.38122559 79.20598145 -33.35424805 80.46313477 C-32.8472115 84.62449912 -31.84312475 87.29535758 -29.921875 91.01171875 C-26.42371101 93.55583801 -24.56442562 94.03350013 -20.234375 93.88671875 C-16.29162892 92.95300239 -16.29162892 92.95300239 -13.921875 90.01171875 C-11.63055848 83.13776918 -11.37220355 76.21697562 -10.921875 69.01171875 C-3.991875 69.01171875 2.938125 69.01171875 10.078125 69.01171875 C10.46265243 81.82929976 10.13705411 94.05505793 1.078125 104.01171875 C-8.2500308 111.74726258 -19.40303775 111.84093965 -30.921875 111.01171875 C-38.52099543 109.94004792 -43.87991216 106.79067384 -48.921875 101.01171875 C-57.89359873 88.7750558 -56.39159574 70.87232588 -56.31298828 56.56274414 C-56.29692502 53.08504916 -56.31289222 49.60851884 -56.33203125 46.13085938 C-56.36618326 12.01299904 -56.36618326 12.01299904 -45.3984375 0.3984375 C-33.66574656 -9.30249477 -12.03032287 -8.68622963 0 0 Z M-31.921875 15.01171875 C-34.03491517 20.72502596 -34.16542918 25.90557862 -34.046875 31.94921875 C-34.005625 34.93984375 -33.964375 37.93046875 -33.921875 41.01171875 C-26.331875 41.01171875 -18.741875 41.01171875 -10.921875 41.01171875 C-10.082372 26.33743816 -10.082372 26.33743816 -14.984375 12.94921875 C-20.77063704 9.13274804 -27.32379769 9.57762738 -31.921875 15.01171875 Z " fill="#59115A" transform="translate(475.921875,89.98828125)"/>
<path d="M0 0 C7.26 0 14.52 0 22 0 C22 10.89 22 21.78 22 33 C27.94 33 33.88 33 40 33 C40 37.95 40 42.9 40 48 C34.06 48 28.12 48 22 48 C22.04030992 58.10110893 22.09735205 68.20174206 22.18390274 78.30256271 C22.22342133 82.99273839 22.25558821 87.6827251 22.27099609 92.37304688 C22.28613396 96.89904621 22.32052798 101.42452616 22.36830902 105.95029449 C22.38315255 107.67741635 22.39104272 109.40461235 22.39188385 111.13179779 C22.39424642 113.55034332 22.42126626 115.96744514 22.45410156 118.38574219 C22.4490712 119.10071869 22.44404083 119.81569519 22.43885803 120.55233765 C22.50976256 123.92511442 22.79283429 125.72483181 24.84564209 128.45147705 C27.76270028 130.54821851 29.69881174 130.40439949 33.25 130.25 C35.1475 130.1675 37.045 130.085 39 130 C39 135.61 39 141.22 39 147 C30.06001265 149.23499684 17.92376759 149.8653572 9.69140625 145.2578125 C4.30152194 141.24963064 1.7714841 136.28867944 0 130 C-0.37245318 127.17594997 -0.38215903 124.4096755 -0.34057617 121.56445312 C-0.34101425 120.76349213 -0.34145233 119.96253113 -0.34190369 119.13729858 C-0.33983172 116.51835828 -0.31657701 113.90007696 -0.29296875 111.28125 C-0.28736711 109.45422719 -0.2830997 107.62719984 -0.28010559 105.8001709 C-0.2687015 101.01285155 -0.23927287 96.22580922 -0.20599365 91.43859863 C-0.17519675 86.54504136 -0.16157976 81.65143894 -0.14648438 76.7578125 C-0.11439861 67.1717539 -0.06325638 57.58590007 0 48 C-3.96 48 -7.92 48 -12 48 C-12 43.05 -12 38.1 -12 33 C-8.04 33 -4.08 33 0 33 C0 22.11 0 11.22 0 0 Z " fill="#5A115B" transform="translate(961,53)"/>
<path d="M0 0 C7.26 0 14.52 0 22 0 C22 52.47 22 104.94 22 159 C14.74 159 7.48 159 0 159 C0 106.53 0 54.06 0 0 Z " fill="#5A125A" transform="translate(1099,41)"/>
</svg>
